<svg xmlns="http://www.w3.org/2000/svg" viewBox="0 0 1200 900" width="1200" height="900">
  <defs>
    <marker id="arrowA" markerWidth="10" markerHeight="7" refX="9" refY="3.5" orient="auto">
      <polygon points="0 0, 10 3.5, 0 7" fill="#7c3aed"/>
    </marker>
    <marker id="arrowB" markerWidth="10" markerHeight="7" refX="9" refY="3.5" orient="auto">
      <polygon points="0 0, 10 3.5, 0 7" fill="#10b981"/>
    </marker>
    <marker id="arrowC" markerWidth="10" markerHeight="7" refX="9" refY="3.5" orient="auto">
      <polygon points="0 0, 10 3.5, 0 7" fill="#2563eb"/>
    </marker>
    <marker id="arrowE" markerWidth="10" markerHeight="7" refX="9" refY="3.5" orient="auto">
      <polygon points="0 0, 10 3.5, 0 7" fill="#f97316"/>
    </marker>
    <marker id="arrowF" markerWidth="10" markerHeight="7" refX="9" refY="3.5" orient="auto">
      <polygon points="0 0, 10 3.5, 0 7" fill="#7c3aed"/>
    </marker>
    <marker id="arrowG" markerWidth="10" markerHeight="7" refX="9" refY="3.5" orient="auto">
      <polygon points="0 0, 10 3.5, 0 7" fill="#ef4444"/>
    </marker>
    <marker id="arrowH" markerWidth="10" markerHeight="7" refX="9" refY="3.5" orient="auto">
      <polygon points="0 0, 10 3.5, 0 7" fill="#6b7280"/>
    </marker>
    <filter id="shadowSoft" x="-20%" y="-20%" width="140%" height="160%">
      <feDropShadow dx="0" dy="3" stdDeviation="6" flood-color="#0f172a" flood-opacity="0.12"/>
    </filter>
    <filter id="shadowGlass" x="-20%" y="-20%" width="140%" height="160%">
      <feDropShadow dx="0" dy="10" stdDeviation="16" flood-color="#020617" flood-opacity="0.28"/>
    </filter>
    <style>
    text { font-family: 'Helvetica Neue', Helvetica, Arial, 'PingFang SC', 'Microsoft YaHei', 'Microsoft JhengHei', 'SimHei', sans-serif; }
    .title { font-size: 30px; font-weight: 700; fill: #111827; }
    .subtitle { font-size: 14px; font-weight: 500; fill: #6b7280; }
    .section { font-size: 13px; font-weight: 700; fill: #2563eb; letter-spacing: 1.4px; }
    .section-sub { font-size: 12px; font-weight: 500; fill: #94a3b8; }
    .node-title { font-size: 18px; font-weight: 700; fill: #111827; }
    .node-sub { font-size: 12px; font-weight: 500; fill: #6b7280; }
    .node-type { font-size: 12px; font-weight: 700; fill: #9ca3af; letter-spacing: 0.08em; }
    .arrow-label { font-size: 12px; font-weight: 600; fill: #6b7280; }
    .legend { font-size: 12px; font-weight: 500; fill: #6b7280; }
    .footnote { font-size: 12px; font-weight: 500; fill: #94a3b8; }
    </style>
  </defs>
  <rect width="1200.0" height="900.0" fill="#ffffff"/>
  <text x="600.0" y="56" text-anchor="middle" class="title">TestSpec Workflow</text>
  <text x="600.0" y="82" text-anchor="middle" class="subtitle">testspec-new → analysis → points → generate → review → publish, with testlib feedback loops</text>
  <rect x="40.0" y="116.0" width="240.0" height="560.0" rx="16.0" fill="none" stroke="#dbe5f1" stroke-width="1.4" stroke-dasharray="6 5"/>
  <text x="58.0" y="140.0" class="section">01 启动</text>
  <text x="58.0" y="160.0" class="section-sub">创建变更与提案</text>
  <text x="28.0" y="396.0" text-anchor="end" dominant-baseline="middle" font-size="14.0" font-weight="600" fill="#6b7280">CHANGE</text>
  <rect x="320.0" y="116.0" width="260.0" height="560.0" rx="16.0" fill="none" stroke="#dbe5f1" stroke-width="1.4" stroke-dasharray="6 5"/>
  <text x="338.0" y="140.0" class="section">02 分析与测试点</text>
  <text x="338.0" y="160.0" class="section-sub">拆解风险与验证目标</text>
  <text x="302.0" y="396.0" text-anchor="end" dominant-baseline="middle" font-size="14.0" font-weight="600" fill="#6b7280">ANALYZE</text>
  <rect x="620.0" y="116.0" width="250.0" height="560.0" rx="16.0" fill="none" stroke="#dbe5f1" stroke-width="1.4" stroke-dasharray="6 5"/>
  <text x="638.0" y="140.0" class="section">03 生成与评审</text>
  <text x="638.0" y="160.0" class="section-sub">形成可执行用例</text>
  <text x="602.0" y="396.0" text-anchor="end" dominant-baseline="middle" font-size="14.0" font-weight="600" fill="#6b7280">DELIVER</text>
  <rect x="910.0" y="116.0" width="250.0" height="560.0" rx="16.0" fill="none" stroke="#dbe5f1" stroke-width="1.4" stroke-dasharray="6 5"/>
  <text x="928.0" y="140.0" class="section">04 发布</text>
  <text x="928.0" y="160.0" class="section-sub">沉淀到持久知识库</text>
  <text x="892.0" y="396.0" text-anchor="end" dominant-baseline="middle" font-size="14.0" font-weight="600" fill="#6b7280">PUBLISH</text>
  <rect x="40.0" y="716.0" width="1120.0" height="120.0" rx="16.0" fill="none" stroke="#dbe5f1" stroke-width="1.4" stroke-dasharray="6 5"/>
  <text x="58.0" y="740.0" class="section">05 知识库闭环</text>
  <text x="58.0" y="760.0" class="section-sub">testlib 反哺 analysis / points / generate</text>
  <text x="28.0" y="776.0" text-anchor="end" dominant-baseline="middle" font-size="14.0" font-weight="600" fill="#6b7280">FEEDBACK</text>
  <path d="M 160.0,232.0 L 160.0,284.0" fill="none" stroke="#2563eb" stroke-width="2.4" marker-end="url(#arrowC)"/>
  <path d="M 160.0,368.0 L 160.0,424.0" fill="none" stroke="#10b981" stroke-width="2.4" marker-end="url(#arrowB)" stroke-dasharray="6,4"/>
  <path d="M 248.0,466.0 L 290.0,466.0 L 290.0,190.0 L 348.0,190.0" fill="none" stroke="#2563eb" stroke-width="2.4" marker-end="url(#arrowC)"/>
  <path d="M 450.0,232.0 L 450.0,290.0" fill="none" stroke="#10b981" stroke-width="2.4" marker-end="url(#arrowB)" stroke-dasharray="6,4"/>
  <path d="M 450.0,368.0 L 450.0,430.0" fill="none" stroke="#2563eb" stroke-width="2.4" marker-end="url(#arrowC)"/>
  <path d="M 450.0,514.0 L 450.0,568.0" fill="none" stroke="#10b981" stroke-width="2.4" marker-end="url(#arrowB)" stroke-dasharray="6,4"/>
  <path d="M 548.0,607.0 L 590.0,607.0 L 590.0,210.0 L 648.0,210.0" fill="none" stroke="#2563eb" stroke-width="2.4" marker-end="url(#arrowC)"/>
  <path d="M 750.0,252.0 L 750.0,314.0" fill="none" stroke="#10b981" stroke-width="2.4" marker-end="url(#arrowB)" stroke-dasharray="6,4"/>
  <path d="M 750.0,406.0 L 750.0,470.0" fill="none" stroke="#2563eb" stroke-width="2.4" marker-end="url(#arrowC)"/>
  <path d="M 750.0,554.0 L 750.0,604.0" fill="none" stroke="#10b981" stroke-width="2.4" marker-end="url(#arrowB)" stroke-dasharray="6,4"/>
  <path d="M 842.0,642.0 L 870.0,642.0 L 870.0,374.0 L 938.0,374.0" fill="none" stroke="#2563eb" stroke-width="2.4" marker-end="url(#arrowC)"/>
  <path d="M 1035.0,416.0 L 1036.0,470.0 L 1036.0,690.0 L 600.0,690.0 L 600.0,744.0" fill="none" stroke="#10b981" stroke-width="2.4" marker-end="url(#arrowB)" stroke-dasharray="6,4"/>
  <path d="M 600.0,744.0 L 560.0,700.0 L 300.0,700.0 L 300.0,190.0 L 348.0,190.0" fill="none" stroke="#2563eb" stroke-width="2.4" marker-end="url(#arrowC)"/>
  <path d="M 600.0,744.0 L 610.0,700.0 L 300.0,700.0 L 300.0,472.0 L 348.0,472.0" fill="none" stroke="#2563eb" stroke-width="2.4" marker-end="url(#arrowC)"/>
  <path d="M 600.0,744.0 L 700.0,700.0 L 900.0,700.0 L 900.0,210.0 L 852.0,210.0" fill="none" stroke="#2563eb" stroke-width="2.4" marker-end="url(#arrowC)"/>
  <path d="M 78.0 154.0 L 224.84 154.0 L 242.0 171.16 L 242.0 232.0 L 78.0 232.0 Z" fill="#ffffff" stroke="#d1d5db" stroke-width="2.0"/>
  <path d="M 224.84 154.0 L 224.84 171.16 L 242.0 171.16" fill="none" stroke="#d1d5db" stroke-width="2.0"/>
  <line x1="96.0" y1="180.0" x2="214.0" y2="180.0" stroke="#c4b5fd" stroke-width="1.2"/>
  <line x1="96.0" y1="194.0" x2="214.0" y2="194.0" stroke="#c4b5fd" stroke-width="1.2"/>
  <line x1="96.0" y1="208.0" x2="214.0" y2="208.0" stroke="#c4b5fd" stroke-width="1.2"/>
  <line x1="96.0" y1="222.0" x2="214.0" y2="222.0" stroke="#c4b5fd" stroke-width="1.2"/>
  <text x="160.0" y="172.0" text-anchor="middle" class="node-type">INPUT</text>
  <text x="160.0" y="258.0" text-anchor="middle" class="node-title">PRD / 需求材料</text>
  <text x="160.0" y="276.0" text-anchor="middle" class="node-sub">链接、PRD、设计稿</text>
  <rect x="58.0" y="284.0" width="204.0" height="84.0" rx="10.0" fill="#ffffff" stroke="#7c3aed" stroke-width="2.0" filter="url(#shadowSoft)"/>
  <rect x="64.0" y="290.0" width="192.0" height="72.0" rx="7.0" fill="none" stroke="#7c3aed" stroke-width="1.2" opacity="0.65"/>
  <text x="160.0" y="302.0" text-anchor="middle" class="node-type">STEP 1</text>
  <text x="160.0" y="332.0" text-anchor="middle" class="node-title">testspec-new</text>
  <path d="M 72.0 442.0 L 93.6 442.0 L 103.32 424.0 L 126.0 424.0 L 248.0 424.0 L 248.0 508.0 L 72.0 508.0 Z" fill="#ffffff" stroke="#d1d5db" stroke-width="2.0"/>
  <line x1="94.0" y1="466.0" x2="226.0" y2="466.0" stroke="#d1d5db" stroke-opacity="0.35" stroke-width="1.2"/>
  <line x1="94.0" y1="480.0" x2="226.0" y2="480.0" stroke="#d1d5db" stroke-opacity="0.35" stroke-width="1.2"/>
  <line x1="94.0" y1="494.0" x2="226.0" y2="494.0" stroke="#d1d5db" stroke-opacity="0.35" stroke-width="1.2"/>
  <text x="160.0" y="442.0" text-anchor="middle" class="node-type">ARTIFACT</text>
  <text x="160.0" y="534.0" text-anchor="middle" class="node-title">proposal.md</text>
  <text x="160.0" y="552.0" text-anchor="middle" class="node-sub">changes/&lt;name&gt;/</text>
  <rect x="348.0" y="148.0" width="204.0" height="84.0" rx="10.0" fill="#ffffff" stroke="#7c3aed" stroke-width="2.0" filter="url(#shadowSoft)"/>
  <rect x="354.0" y="154.0" width="192.0" height="72.0" rx="7.0" fill="none" stroke="#7c3aed" stroke-width="1.2" opacity="0.65"/>
  <text x="450.0" y="166.0" text-anchor="middle" class="node-type">STEP 2</text>
  <text x="450.0" y="196.0" text-anchor="middle" class="node-title">testspec-analysis</text>
  <path d="M 352.0 290.0 L 530.84 290.0 L 548.0 307.16 L 548.0 368.0 L 352.0 368.0 Z" fill="#ffffff" stroke="#d1d5db" stroke-width="2.0"/>
  <path d="M 530.84 290.0 L 530.84 307.16 L 548.0 307.16" fill="none" stroke="#d1d5db" stroke-width="2.0"/>
  <line x1="370.0" y1="316.0" x2="520.0" y2="316.0" stroke="#c4b5fd" stroke-width="1.2"/>
  <line x1="370.0" y1="330.0" x2="520.0" y2="330.0" stroke="#c4b5fd" stroke-width="1.2"/>
  <line x1="370.0" y1="344.0" x2="520.0" y2="344.0" stroke="#c4b5fd" stroke-width="1.2"/>
  <line x1="370.0" y1="358.0" x2="520.0" y2="358.0" stroke="#c4b5fd" stroke-width="1.2"/>
  <text x="450.0" y="308.0" text-anchor="middle" class="node-type">ARTIFACT</text>
  <text x="450.0" y="394.0" text-anchor="middle" class="node-title">requirements-analysis.md</text>
  <text x="450.0" y="412.0" text-anchor="middle" class="node-sub">风险、缺口、待确认项</text>
  <rect x="348.0" y="430.0" width="204.0" height="84.0" rx="10.0" fill="#ffffff" stroke="#7c3aed" stroke-width="2.0" filter="url(#shadowSoft)"/>
  <rect x="354.0" y="436.0" width="192.0" height="72.0" rx="7.0" fill="none" stroke="#7c3aed" stroke-width="1.2" opacity="0.65"/>
  <text x="450.0" y="448.0" text-anchor="middle" class="node-type">STEP 3</text>
  <text x="450.0" y="478.0" text-anchor="middle" class="node-title">testspec-points</text>
  <path d="M 352.0 568.0 L 530.84 568.0 L 548.0 585.16 L 548.0 646.0 L 352.0 646.0 Z" fill="#ffffff" stroke="#d1d5db" stroke-width="2.0"/>
  <path d="M 530.84 568.0 L 530.84 585.16 L 548.0 585.16" fill="none" stroke="#d1d5db" stroke-width="2.0"/>
  <line x1="370.0" y1="594.0" x2="520.0" y2="594.0" stroke="#c4b5fd" stroke-width="1.2"/>
  <line x1="370.0" y1="608.0" x2="520.0" y2="608.0" stroke="#c4b5fd" stroke-width="1.2"/>
  <line x1="370.0" y1="622.0" x2="520.0" y2="622.0" stroke="#c4b5fd" stroke-width="1.2"/>
  <line x1="370.0" y1="636.0" x2="520.0" y2="636.0" stroke="#c4b5fd" stroke-width="1.2"/>
  <text x="450.0" y="586.0" text-anchor="middle" class="node-type">ARTIFACT</text>
  <text x="450.0" y="672.0" text-anchor="middle" class="node-title">specs/testpoints.md</text>
  <text x="450.0" y="690.0" text-anchor="middle" class="node-sub">What to test</text>
  <rect x="648.0" y="168.0" width="204.0" height="84.0" rx="10.0" fill="#ffffff" stroke="#7c3aed" stroke-width="2.0" filter="url(#shadowSoft)"/>
  <rect x="654.0" y="174.0" width="192.0" height="72.0" rx="7.0" fill="none" stroke="#7c3aed" stroke-width="1.2" opacity="0.65"/>
  <text x="750.0" y="186.0" text-anchor="middle" class="node-type">STEP 4</text>
  <text x="750.0" y="216.0" text-anchor="middle" class="node-title">testspec-generate</text>
  <path d="M 644.0 332.0 L 665.6 332.0 L 675.32 314.0 L 698.0 314.0 L 856.0 314.0 L 856.0 406.0 L 644.0 406.0 Z" fill="#ffffff" stroke="#d1d5db" stroke-width="2.0"/>
  <line x1="666.0" y1="356.0" x2="834.0" y2="356.0" stroke="#d1d5db" stroke-opacity="0.35" stroke-width="1.2"/>
  <line x1="666.0" y1="370.0" x2="834.0" y2="370.0" stroke="#d1d5db" stroke-opacity="0.35" stroke-width="1.2"/>
  <line x1="666.0" y1="384.0" x2="834.0" y2="384.0" stroke="#d1d5db" stroke-opacity="0.35" stroke-width="1.2"/>
  <text x="750.0" y="332.0" text-anchor="middle" class="node-type">OUTPUT</text>
  <text x="750.0" y="432.0" text-anchor="middle" class="node-title">artifacts/</text>
  <text x="750.0" y="450.0" text-anchor="middle" class="node-sub">testcases.json · Excel · XMind</text>
  <rect x="648.0" y="470.0" width="204.0" height="84.0" rx="10.0" fill="#ffffff" stroke="#7c3aed" stroke-width="2.0" filter="url(#shadowSoft)"/>
  <rect x="654.0" y="476.0" width="192.0" height="72.0" rx="7.0" fill="none" stroke="#7c3aed" stroke-width="1.2" opacity="0.65"/>
  <text x="750.0" y="488.0" text-anchor="middle" class="node-type">STEP 5</text>
  <text x="750.0" y="518.0" text-anchor="middle" class="node-title">testspec-review</text>
  <path d="M 658.0 604.0 L 825.28 604.0 L 842.0 620.72 L 842.0 680.0 L 658.0 680.0 Z" fill="#ffffff" stroke="#d1d5db" stroke-width="2.0"/>
  <path d="M 825.28 604.0 L 825.28 620.72 L 842.0 620.72" fill="none" stroke="#d1d5db" stroke-width="2.0"/>
  <line x1="676.0" y1="630.0" x2="814.0" y2="630.0" stroke="#c4b5fd" stroke-width="1.2"/>
  <line x1="676.0" y1="644.0" x2="814.0" y2="644.0" stroke="#c4b5fd" stroke-width="1.2"/>
  <line x1="676.0" y1="658.0" x2="814.0" y2="658.0" stroke="#c4b5fd" stroke-width="1.2"/>
  <line x1="676.0" y1="672.0" x2="814.0" y2="672.0" stroke="#c4b5fd" stroke-width="1.2"/>
  <text x="750.0" y="622.0" text-anchor="middle" class="node-type">ARTIFACT</text>
  <text x="750.0" y="706.0" text-anchor="middle" class="node-title">review-report.md</text>
  <text x="750.0" y="724.0" text-anchor="middle" class="node-sub">14 维质量结论</text>
  <rect x="938.0" y="332.0" width="194.0" height="84.0" rx="10.0" fill="#ffffff" stroke="#7c3aed" stroke-width="2.0" filter="url(#shadowSoft)"/>
  <rect x="944.0" y="338.0" width="182.0" height="72.0" rx="7.0" fill="none" stroke="#7c3aed" stroke-width="1.2" opacity="0.65"/>
  <text x="1035.0" y="350.0" text-anchor="middle" class="node-type">STEP 6 · OPTIONAL</text>
  <text x="1035.0" y="380.0" text-anchor="middle" class="node-title">testspec-publish</text>
  <ellipse cx="600.0" cy="753.75" rx="55.0" ry="9.75" fill="#ffffff" stroke="#2563eb" stroke-width="2.2"/>
  <rect x="490.0" y="753.75" width="220.0" height="58.5" fill="#ffffff" stroke="#2563eb" stroke-width="2.2"/>
  <ellipse cx="600.0" cy="812.25" rx="55.0" ry="9.75" fill="#ffffff" stroke="#2563eb" stroke-width="2.2"/>
  <ellipse cx="600.0" cy="773.64" rx="55.0" ry="9.75" fill="none" stroke="#2563eb" stroke-opacity="0.45" stroke-width="1.2"/>
  <ellipse cx="600.0" cy="790.8" rx="55.0" ry="9.75" fill="none" stroke="#2563eb" stroke-opacity="0.25" stroke-width="1.2"/>
  <text x="600.0" y="777.0" text-anchor="middle" class="node-title">testspec/testlib</text>
  <text x="600.0" y="801.0" text-anchor="middle" class="node-sub">index · modules · log · changelog</text>
  <rect x="273.0" y="314.0" width="70" height="20" rx="6" fill="#ffffff" opacity="0.94"/>
  <text x="308.0" y="328.0" text-anchor="middle" class="arrow-label">proposal</text>
  <rect x="547.5" y="394.5" width="49" height="20" rx="6" fill="#ffffff" opacity="0.94"/>
  <text x="572.0" y="408.5" text-anchor="middle" class="arrow-label">specs</text>
  <rect x="870.0" y="494.0" width="36" height="20" rx="6" fill="#ffffff" opacity="0.94"/>
  <text x="888.0" y="508.0" text-anchor="middle" class="arrow-label">通过后</text>
  <rect x="261.0" y="431.0" width="42" height="20" rx="6" fill="#ffffff" opacity="0.94"/>
  <text x="282.0" y="445.0" text-anchor="middle" class="arrow-label">已有覆盖</text>
  <rect x="434.0" y="670.0" width="42" height="20" rx="6" fill="#ffffff" opacity="0.94"/>
  <text x="455.0" y="684.0" text-anchor="middle" class="arrow-label">复用边界</text>
  <rect x="861.0" y="441.0" width="42" height="20" rx="6" fill="#ffffff" opacity="0.94"/>
  <text x="882.0" y="455.0" text-anchor="middle" class="arrow-label">步骤风格</text>
  <rect x="840.0" y="766.0" width="177" height="68" rx="10" fill="#ffffff" opacity="0.88"/>
  <line x1="850.0" y1="780.0" x2="880.0" y2="780.0" stroke="#2563eb" stroke-width="2.4" marker-end="url(#arrowC)"/>
  <text x="890.0" y="784.0" class="legend">下游读取上游产物 / 历史知识</text>
  <line x1="850.0" y1="802.0" x2="880.0" y2="802.0" stroke="#10b981" stroke-width="2.4" marker-end="url(#arrowB)"/>
  <text x="890.0" y="806.0" class="legend">当前阶段生成或沉淀产物</text>
</svg>